<?xml version="1.0" encoding="UTF-8" standalone="no"?>
<!DOCTYPE svg PUBLIC "-//W3C//DTD SVG 1.1//EN" "http://www.w3.org/Graphics/SVG/1.1/DTD/svg11.dtd">
<svg width="100%" height="100%" viewBox="0 0 200 200" version="1.1" xmlns="http://www.w3.org/2000/svg" xmlns:xlink="http://www.w3.org/1999/xlink" xml:space="preserve" xmlns:serif="http://www.serif.com/" style="fill-rule:evenodd;clip-rule:evenodd;stroke-linecap:round;stroke-linejoin:round;stroke-miterlimit:1.5;">
    <g id="Scala_Icon">
        <g id="XMLID_1_" transform="matrix(1.44605,0,0,1.44605,-44.6272,-44.6049)">
            <path d="M151.3,168L48.7,168C39.5,168 32,160.5 32,151.3L32,48.7C32,39.5 39.5,32 48.7,32L151.4,32C160.6,32 168.1,39.5 168.1,48.7L168.1,151.4C168,160.5 160.5,168 151.3,168Z" style="fill:rgb(220,51,45);fill-rule:nonzero;"/>
        </g>
        <g id="shadow" transform="matrix(1.44605,0,0,1.44605,-44.6272,-44.6049)">
            <clipPath id="_clip1">
                <path d="M151.3,168L48.7,168C39.5,168 32,160.5 32,151.3L32,48.7C32,39.5 39.5,32 48.7,32L151.4,32C160.6,32 168.1,39.5 168.1,48.7L168.1,151.4C168,160.5 160.5,168 151.3,168Z"/>
            </clipPath>
            <g clip-path="url(#_clip1)">
                <path d="M68.5,87.4L77.4,96.3L68.5,121L78.1,130.5L68.5,154.5L82.1,168L168,168L168,82L131.5,45.5L131.5,52.4L68.5,87.4Z" style="fill-opacity:0.3;fill-rule:nonzero;"/>
            </g>
        </g>
        <g id="logo" transform="matrix(1.44605,0,0,1.44605,-44.6272,-44.6049)">
            <g opacity="0.6">
                <path d="M68.5,87.4C68.5,87.4 131.4,93.7 131.4,104.2L131.4,79C131.4,79 131.4,68.5 68.5,62.2L68.5,87.4Z" style="fill:white;fill-rule:nonzero;"/>
                <path d="M68.5,121C68.5,121 131.4,127.3 131.4,137.8L131.4,112.6C131.4,112.6 131.4,102.1 68.5,95.8L68.5,121Z" style="fill:white;fill-rule:nonzero;"/>
            </g>
            <path d="M131.5,45.5L131.5,70.7C131.5,70.7 131.5,81.2 68.6,87.5L68.6,62.2C68.5,62.2 131.5,56 131.5,45.5" style="fill:white;fill-rule:nonzero;"/>
            <path d="M68.5,95.8C68.5,95.8 131.4,89.5 131.4,79L131.4,104.2C131.4,104.2 131.4,114.7 68.5,121L68.5,95.8Z" style="fill:white;fill-rule:nonzero;"/>
            <path d="M68.5,154.5L68.5,129.3C68.5,129.3 131.4,123 131.4,112.5L131.4,137.7C131.5,137.8 131.5,148.2 68.5,154.5" style="fill:white;fill-rule:nonzero;"/>
        </g>
        <g transform="matrix(1.98757,0,0,1.98757,-173.185,-178.379)">
            <path d="M137.853,99.771C160.671,99.771 179.196,118.296 179.196,141.114C179.196,163.932 160.671,182.458 137.853,182.458C115.035,182.458 96.509,163.932 96.509,141.114C96.509,118.296 115.035,99.771 137.853,99.771ZM137.853,101.838C159.53,101.838 177.129,119.437 177.129,141.114C177.129,162.791 159.53,180.391 137.853,180.391C116.175,180.391 98.576,162.791 98.576,141.114C98.576,119.437 116.175,101.838 137.853,101.838Z" style="fill:rgb(1,1,1);"/>
        </g>
        <path d="M53.524,129.18C53.524,129.18 56.929,156.189 100.114,154.48C136.82,153.027 143.658,133.57 143.658,133.57" style="fill:none;stroke:black;stroke-width:5px;"/>
        <path d="M121.92,151.055L126.381,157.378C126.381,157.378 131.04,164.021 137.612,159.78C142.86,156.394 139.843,150.813 139.843,150.813L135.785,143.687" style="fill:none;stroke:black;stroke-width:5px;"/>
        <g transform="matrix(1,0,0,1,-13.3787,-7.96257)">
            <path d="M130.792,76.271C137.805,76.271 143.499,81.899 143.499,88.831C143.499,95.764 137.805,101.392 130.792,101.392C123.778,101.392 118.085,95.764 118.085,88.831C118.085,81.899 123.778,76.271 130.792,76.271ZM130.792,76.271C137.805,76.271 143.499,81.899 143.499,88.831C143.499,95.764 137.805,101.392 130.792,101.392C123.778,101.392 118.085,95.764 118.085,88.831C118.085,81.899 123.778,76.271 130.792,76.271Z" style="fill:rgb(1,1,1);stroke:black;stroke-width:5px;"/>
        </g>
        <g transform="matrix(1,0,0,1,3.96851,-3.08464)">
            <path d="M63.087,94.64C69.259,88.243 81.575,91.417 81.575,91.417C81.575,91.417 73.289,78.233 64.076,79.171" style="fill:none;stroke:black;stroke-width:5px;"/>
        </g>
    </g>
</svg>
