<svg viewBox="0 0 200 200" xmlns="http://www.w3.org/2000/svg" fill-rule="evenodd" clip-rule="evenodd" stroke-linecap="round" stroke-linejoin="round" stroke-miterlimit="1.5"><path d="M174.16 198.332H25.795c-13.303 0-24.149-10.846-24.149-24.15V25.818c0-13.304 10.846-24.15 24.15-24.15h148.509c13.303 0 24.149 10.846 24.149 24.15v148.51c-.145 13.158-10.99 24.004-24.294 24.004z" fill="#dc332d" fill-rule="nonzero"/><g transform="translate(-44.627 -44.605) scale(1.44605)"><clipPath id="a"><path d="M151.3 168H48.7c-9.2 0-16.7-7.5-16.7-16.7V48.7C32 39.5 39.5 32 48.7 32h102.7c9.2 0 16.7 7.5 16.7 16.7v102.7c-.1 9.1-7.6 16.6-16.8 16.6z"/></clipPath><g clip-path="url(#a)"><path d="M68.5 87.4l8.9 8.9-8.9 24.7 9.6 9.5-9.6 24L82.1 168H168V82l-36.5-36.5v6.9l-63 35z" fill-opacity=".3" fill-rule="nonzero"/></g></g><g fill="#fff" fill-rule="nonzero"><path d="M54.427 81.78s90.957 9.11 90.957 24.294v-36.44c0-.001 0-15.184-90.957-24.295v36.44zm0 48.587s90.957 9.11 90.957 24.294v-36.44s0-15.184-90.957-24.294v36.44z" opacity=".6"/><path d="M145.528 21.19v36.44s0 15.184-90.956 24.294V45.34c-.145 0 90.956-8.965 90.956-24.149M54.427 93.927s90.957-9.11 90.957-24.294v36.44s0 15.184-90.957 24.294v-36.44zm0 84.883v-36.44s90.957-9.11 90.957-24.294v36.44c.144.145.144 15.184-90.957 24.294"/></g><path d="M100.807 19.923c45.353 0 82.173 36.82 82.173 82.172s-36.82 82.174-82.173 82.174c-45.352 0-82.174-36.822-82.174-82.174 0-45.352 36.822-82.172 82.174-82.172zm0 4.108c43.085 0 78.064 34.98 78.064 78.064 0 43.085-34.979 78.066-78.064 78.066-43.086 0-78.065-34.981-78.065-78.066s34.979-78.064 78.065-78.064z" fill="#010101"/><path d="M53.524 129.18s3.405 27.009 46.59 25.3c36.706-1.453 43.544-20.91 43.544-20.91" fill="none" stroke="#000" stroke-width="5"/><path d="M121.92 151.055l4.461 6.323s4.659 6.643 11.231 2.402c5.248-3.386 2.231-8.967 2.231-8.967l-4.058-7.126" fill="none" stroke="#000" stroke-width="5"/><path d="M117.413 68.308c7.013 0 12.707 5.628 12.707 12.56 0 6.933-5.694 12.561-12.707 12.561-7.014 0-12.707-5.628-12.707-12.56 0-6.933 5.693-12.56 12.707-12.56zm0 0c7.013 0 12.707 5.628 12.707 12.56 0 6.933-5.694 12.561-12.707 12.561-7.014 0-12.707-5.628-12.707-12.56 0-6.933 5.693-12.56 12.707-12.56z" fill="#010101" stroke="#000" stroke-width="5"/><path d="M67.056 91.555c6.172-6.397 18.488-3.223 18.488-3.223s-8.286-13.184-17.5-12.246" fill="none" stroke="#000" stroke-width="5"/></svg>